<?xml version="1.0" encoding="iso-8859-1"?>
<!-- Generator: Adobe Illustrator 19.0.0, SVG Export Plug-In . SVG Version: 6.00 Build 0)  -->
<svg xmlns="http://www.w3.org/2000/svg" xmlns:xlink="http://www.w3.org/1999/xlink" version="1.1" id="Layer_1" x="0px" y="0px" viewBox="0 0 512 512" style="enable-background:new 0 0 512 512;" xml:space="preserve" width="512px" height="512px">
<g>
	<g>
		<path d="M411.234,220.596V106.213c0-22.526-18.325-40.851-40.851-40.851c-9.19,0-17.678,3.051-24.511,8.192    c0-22.548-18.325-40.873-40.851-40.873c-9.19,0-17.678,3.051-24.511,8.192C280.511,18.325,262.185,0,239.66,0    c-13.349,0-25.222,6.437-32.681,16.369C199.52,6.437,187.647,0,174.298,0c-22.526,0-40.851,18.325-40.851,40.851v58.014    c-18.624,3.795-32.681,20.3-32.681,40.029v81.702c0,55.819,29.929,106.254,76.255,133.672v57.511h-2.723    c-4.513,0-8.17,3.658-8.17,8.17c0,4.512,3.657,8.17,8.17,8.17h2.723v17.22c-14.959,3.467-26.145,16.894-26.145,32.891    c0,18.62,15.149,33.77,33.77,33.77c10.228,0,19.403-4.578,25.6-11.784c6.197,7.206,15.372,11.784,25.6,11.784    s19.403-4.578,25.6-11.784c6.197,7.206,15.372,11.784,25.6,11.784s19.403-4.578,25.6-11.784    c6.197,7.206,15.372,11.784,25.6,11.784c18.622,0,33.77-15.15,33.77-33.77c0-15.998-11.186-29.424-26.145-32.891v-17.22h2.723    c4.513,0,8.17-3.658,8.17-8.17c0-4.512-3.657-8.17-8.17-8.17h-2.723v-64.617C386.113,318.521,411.234,271.63,411.234,220.596z     M345.872,106.213c0-13.516,10.996-24.511,24.511-24.511c13.515,0,24.511,10.995,24.511,24.511v65.362    c0,13.516-10.996,24.511-24.511,24.511c-13.515,0-24.511-10.995-24.511-24.511V106.213z M280.511,73.532    c0-13.516,10.996-24.511,24.511-24.511c13.515,0,24.511,10.995,24.511,24.511v65.362c0,13.516-10.996,24.511-24.511,24.511    c-13.515,0-24.511-10.995-24.511-24.511V73.532z M215.149,40.851c0-13.516,10.996-24.511,24.511-24.511    c13.515,0,24.511,10.995,24.511,24.511v65.362c-6.832-5.119-15.322-8.17-24.511-8.17h-24.511V40.851z M149.787,40.851    c0-13.516,10.996-24.511,24.511-24.511c13.515,0,24.511,10.995,24.511,24.511v57.191h-49.021V40.851z M184.647,495.66    c-9.61,0-17.43-7.819-17.43-17.43s7.819-17.43,17.43-17.43c9.61,0,17.43,7.819,17.43,17.43S194.257,495.66,184.647,495.66z     M235.847,495.66c-9.61,0-17.43-7.819-17.43-17.43s7.819-17.43,17.43-17.43s17.43,7.819,17.43,17.43    S245.457,495.66,235.847,495.66z M287.047,495.66c-9.61,0-17.43-7.819-17.43-17.43s7.819-17.43,17.43-17.43    s17.43,7.819,17.43,17.43S296.657,495.66,287.047,495.66z M312.647,456.243c-6.197-7.206-15.372-11.784-25.6-11.784    s-19.403,4.577-25.6,11.784c-6.197-7.206-15.372-11.784-25.6-11.784s-19.403,4.577-25.6,11.784    c-4.372-5.083-10.224-8.855-16.885-10.638v-17.486h136.17v17.486C322.87,447.387,317.018,451.159,312.647,456.243z     M355.677,478.23c0,9.61-7.819,17.43-17.43,17.43s-17.43-7.819-17.43-17.43s7.819-17.43,17.43-17.43    S355.677,468.619,355.677,478.23z M302.298,351.576c-4.254,1.503-6.484,6.172-4.979,10.426c1.186,3.354,4.337,5.449,7.703,5.449    c0.903,0,1.823-0.151,2.723-0.47c7.582-2.68,14.853-5.922,21.787-9.655v54.452h-136.17v-49.116    c7.173,3.162,14.65,5.813,22.398,7.887c0.707,0.19,1.418,0.28,2.118,0.28c3.608,0,6.91-2.409,7.887-6.06    c1.167-4.359-1.422-8.838-5.78-10.005c-10.882-2.913-21.17-7.09-30.732-12.336c-0.103-0.06-0.207-0.117-0.313-0.172    c-43.495-24.003-71.834-70.281-71.834-121.661v-81.702c0-13.516,10.996-24.511,24.511-24.511h98.043    c13.515,0,24.511,10.995,24.511,24.511c0,13.516-10.996,24.511-24.511,24.511h-65.362c-4.513,0-8.17,3.658-8.17,8.17v49.021    c0,4.512,3.657,8.17,8.17,8.17c40.546,0,73.532,32.986,73.532,73.532c0,4.512,3.657,8.17,8.17,8.17c4.513,0,8.17-3.658,8.17-8.17    c0-46.803-35.959-85.365-81.702-89.504v-33.049h57.192c13.349,0,25.222-6.437,32.681-16.369    c7.459,9.932,19.332,16.369,32.681,16.369c9.19,0,17.678-3.051,24.511-8.192c0,22.548,18.325,40.873,40.851,40.873    c9.19,0,17.678-3.051,24.511-8.192v16.362C394.894,279.361,357.682,331.999,302.298,351.576z" fill="#ff00bf"/>
	</g>
</g>
<g>
</g>
<g>
</g>
<g>
</g>
<g>
</g>
<g>
</g>
<g>
</g>
<g>
</g>
<g>
</g>
<g>
</g>
<g>
</g>
<g>
</g>
<g>
</g>
<g>
</g>
<g>
</g>
<g>
</g>
</svg>
