<?xml version="1.0" encoding="iso-8859-1"?>
<!-- Generator: Adobe Illustrator 19.0.0, SVG Export Plug-In . SVG Version: 6.00 Build 0)  -->
<svg xmlns="http://www.w3.org/2000/svg" xmlns:xlink="http://www.w3.org/1999/xlink" version="1.1" id="Layer_1" x="0px" y="0px" viewBox="0 0 512 512" style="enable-background:new 0 0 512 512;" xml:space="preserve" width="512px" height="512px">
<g>
	<g>
		<g>
			<path d="M246.768,426.667h-15.667c-9.816,0-17.766,7.951-17.766,17.766V460.1c0,9.816,7.951,17.766,17.766,17.766h15.667     c9.816,0,17.766-7.951,17.766-17.766v-15.667C264.534,434.617,256.584,426.667,246.768,426.667z M247.468,460.1     c0,0.39-0.31,0.7-0.7,0.7h-15.667c-0.39,0-0.7-0.31-0.7-0.7v-15.667c0-0.39,0.31-0.7,0.7-0.7h15.667c0.39,0,0.7,0.31,0.7,0.7     V460.1z" fill="#ff00bf"/>
			<path d="M476.134,145.067H384V33.809C384,15.136,368.864,0,350.191,0H127.676c-18.673,0-33.809,15.136-33.809,33.809v8.858h-58     c-10.379,0-18.799,8.42-18.799,18.799v56.269c0,10.379,8.42,18.799,18.799,18.799h58v136.533h-58     c-10.379,0-18.799,8.42-18.799,18.799v64.802c0,10.379,8.42,18.799,18.799,18.799h58v102.724     c0,18.673,15.136,33.809,33.809,33.809h222.515C368.864,512,384,496.864,384,478.191V247.467h92.134     c10.379,0,18.799-8.42,18.799-18.799v-64.802C494.932,153.487,486.513,145.067,476.134,145.067z M35.866,119.467     c-0.953,0-1.732-0.779-1.732-1.732V61.466c0-0.953,0.779-1.732,1.732-1.732h58h143.334c0.953,0,1.732,0.779,1.732,1.732v56.269     c0,0.953-0.779,1.732-1.732,1.732h-18.868h-0.001l-22.065,22.065l-22.065-22.065h-0.001H93.867H35.866z M35.866,358.4     c-0.953,0-1.732-0.779-1.732-1.732v-64.802c0-0.953,0.779-1.732,1.732-1.732h58h143.334c0.953,0,1.732,0.779,1.732,1.732v64.802     c0,0.953-0.779,1.732-1.732,1.732h-18.868h-0.001l-22.065,22.065L174.202,358.4h-0.001H93.867H35.866z M366.933,401.067H307.2     c-4.713,0-8.533,3.82-8.533,8.533s3.82,8.533,8.533,8.533h59.733v60.058c0,9.248-7.495,16.742-16.742,16.742H127.676     c-9.248,0-16.742-7.495-16.742-16.742V375.467h56.199l29.135,29.135l0,0l0,0l29.135-29.135h11.799h0.001     c10.379,0,18.799-8.42,18.799-18.799v-64.802c0-10.379-8.42-18.799-18.799-18.799h-0.001H110.933V136.533h56.199l29.135,29.135     l0,0l0,0l29.135-29.135h11.799h0.001c10.379,0,18.799-8.42,18.799-18.799V61.466c0-10.379-8.42-18.799-18.799-18.799h-0.001     H110.933v-8.858c0-9.248,7.495-16.742,16.742-16.742h222.515c9.248,0,16.742,7.495,16.742,16.742v111.258h-92.134h-0.001     c-10.379,0-18.799,8.42-18.799,18.799v64.802c0,10.379,8.42,18.799,18.799,18.799h0.001h11.799l29.135,29.135l0,0l0,0     l29.135-29.135h22.065V401.067z M477.866,228.668c0,0.953-0.779,1.732-1.732,1.732H384h-46.201h-0.001l-22.065,22.065     L293.668,230.4h-0.001h-18.868c-0.953,0-1.732-0.779-1.732-1.732v-64.802c0-0.953,0.779-1.732,1.732-1.732H384h92.134     c0.953,0,1.732,0.779,1.732,1.732V228.668z" fill="#ff00bf"/>
		</g>
	</g>
</g>
<g>
</g>
<g>
</g>
<g>
</g>
<g>
</g>
<g>
</g>
<g>
</g>
<g>
</g>
<g>
</g>
<g>
</g>
<g>
</g>
<g>
</g>
<g>
</g>
<g>
</g>
<g>
</g>
<g>
</g>
</svg>
