<?xml version="1.0" encoding="iso-8859-1"?>
<!-- Generator: Adobe Illustrator 19.0.0, SVG Export Plug-In . SVG Version: 6.00 Build 0)  -->
<svg xmlns="http://www.w3.org/2000/svg" xmlns:xlink="http://www.w3.org/1999/xlink" version="1.1" id="Layer_1" x="0px" y="0px" viewBox="0 0 512.001 512.001" style="enable-background:new 0 0 512.001 512.001;" xml:space="preserve" width="512px" height="512px">
<g>
	<g>
		<path d="M405.719,218.896c-1.008-4.078-5.132-6.563-9.206-5.558c-4.077,1.008-6.566,5.129-5.558,9.206    c2.688,10.878,4.05,22.135,4.05,33.457c0,76.649-62.358,139.006-139.005,139.006S116.995,332.65,116.995,256.001    S179.352,116.996,256,116.996c51.905,0,99.122,28.589,123.225,74.609c1.948,3.721,6.544,5.155,10.263,3.209    c3.721-1.949,5.156-6.543,3.208-10.264c-7.912-15.109-18.085-28.506-29.961-39.907v-39.743c0-12.08-7.753-22.379-18.543-26.195    l-6.57-71.794C337.265,2.997,333.982,0,330.051,0H181.945c-3.931,0-7.214,2.997-7.573,6.91l-2.018,22.054    c-0.383,4.182,2.697,7.883,6.879,8.265c4.201,0.389,7.882-2.698,8.265-6.879l1.386-15.142h134.227l5.665,61.91H183.22    l1.632-17.853c0.382-4.182-2.697-7.882-6.879-8.265c-4.185-0.382-7.882,2.698-8.265,6.88l-1.905,20.824    c-10.789,3.816-18.542,14.115-18.542,26.195v39.906c-29.243,28.082-47.474,67.549-47.474,111.197s18.231,83.115,47.474,111.197    v39.903c0,12.08,7.753,22.379,18.542,26.195l6.569,71.794c0.359,3.914,3.642,6.91,7.573,6.91h148.106    c3.931,0,7.214-2.997,7.573-6.91l6.57-71.794c10.79-3.816,18.543-14.115,18.543-26.195v-39.898    c29.246-28.083,47.478-67.552,47.478-111.202C410.214,243.45,408.702,230.967,405.719,218.896z M164.469,104.899L164.469,104.899    c0-6.932,5.64-12.572,12.572-12.572h157.915c6.933,0,12.572,5.64,12.572,12.572v26.922    c-26.017-19.189-57.878-30.035-91.527-30.035c-34.244,0-65.912,11.225-91.531,30.182V104.899z M323.111,496.792H188.885    l-5.664-61.91h145.556L323.111,496.792z M347.528,407.101c0,6.932-5.64,12.572-12.572,12.572H177.041    c-6.933,0-12.572-5.64-12.572-12.572v-27.067c25.619,18.956,57.287,30.182,91.531,30.182c34.242,0,65.909-11.224,91.527-30.179    V407.101z" fill="#ff00bf"/>
	</g>
</g>
<g>
	<g>
		<path d="M335.937,200.794c-9.778-9.778-22.776-15.161-36.603-15.161c-13.827,0-26.826,5.385-36.603,15.161l-6.731,6.731    l-6.731-6.731c-9.778-9.778-22.776-15.161-36.603-15.161c-13.827,0-26.826,5.385-36.603,15.161    c-9.777,9.777-15.161,22.775-15.161,36.603c0,13.827,5.386,26.826,15.161,36.602l12.108,12.107c2.971,2.97,7.784,2.97,10.754,0    c2.97-2.97,2.97-7.784,0-10.753l-12.108-12.108c-6.905-6.904-10.708-16.085-10.708-25.849c0-9.765,3.803-18.945,10.708-25.849    c6.904-6.904,16.084-10.707,25.848-10.707c9.764,0,18.945,3.802,25.848,10.707l12.108,12.108c2.971,2.97,7.784,2.97,10.754,0    l12.107-12.108c6.904-6.904,16.084-10.707,25.848-10.707c9.765,0,18.945,3.803,25.848,10.707    c6.905,6.904,10.708,16.085,10.708,25.849c0,9.764-3.803,18.945-10.708,25.849L256,332.431l-35.167-35.167    c-2.971-2.97-7.784-2.97-10.754,0c-2.97,2.97-2.97,7.784,0,10.753l40.543,40.543c1.427,1.427,3.36,2.227,5.378,2.227    s3.95-0.801,5.378-2.227L335.937,274C356.119,253.817,356.119,220.978,335.937,200.794z" fill="#ff00bf"/>
	</g>
</g>
<g>
</g>
<g>
</g>
<g>
</g>
<g>
</g>
<g>
</g>
<g>
</g>
<g>
</g>
<g>
</g>
<g>
</g>
<g>
</g>
<g>
</g>
<g>
</g>
<g>
</g>
<g>
</g>
<g>
</g>
</svg>
